<svg width="48" height="48" viewBox="0 0 48 48" fill="none" xmlns="http://www.w3.org/2000/svg">
<g clip-path="url(#clip0)">
<path d="M18.9986 47.763C16.7883 47.763 14.5784 46.9418 12.8927 45.298C12.0953 44.5204 11.4624 43.615 11.0114 42.6067C9.8447 39.998 7.76545 37.9187 5.1567 36.752C4.14845 36.3011 3.243 35.6682 2.4654 34.8707C-0.829678 31.4914 -0.819547 26.0024 2.48801 22.6347C3.83366 21.2646 5.54615 20.3919 7.44025 20.1108C8.51781 19.9509 9.47598 19.4703 10.2111 18.7212L10.2681 18.6636C12.3181 16.6137 15.242 15.7163 18.5011 16.137C21.6246 16.5402 24.7037 18.1212 27.1712 20.5888C29.6388 23.0564 31.2199 26.1354 31.6231 29.259C32.0438 32.5181 31.1465 35.4419 29.0964 37.492L29.0446 37.5434C28.2934 38.2819 27.8125 39.2411 27.6533 40.318C27.3731 42.2134 26.5006 43.927 25.1303 45.2737C23.4422 46.9327 21.2201 47.763 18.9986 47.763ZM16.9793 18.8421C15.1511 18.8421 13.4802 19.4312 12.2579 20.6535L12.2201 20.6917C11.0517 21.8823 9.54192 22.6437 7.85325 22.8944C6.56969 23.0849 5.40864 23.6769 4.49551 24.6066C2.25192 26.8909 2.24497 30.6141 4.48003 32.9062C5.00868 33.4483 5.62288 33.878 6.30546 34.1833C9.54689 35.633 12.1304 38.2165 13.5801 41.4579C13.8854 42.1406 14.3151 42.7548 14.8572 43.2834C17.1499 45.5191 20.8736 45.5116 23.1579 43.2668C24.0879 42.353 24.6797 41.1911 24.8696 39.9067C25.1191 38.2189 25.8804 36.708 27.0713 35.5375L27.1066 35.5024C28.5259 34.0832 29.1387 31.9939 28.8322 29.6194C28.5081 27.1093 27.2116 24.6089 25.1814 22.5787C22.7378 20.135 19.6866 18.8421 16.9793 18.8421Z" fill="#936363"/>
<path d="M28.3676 14.4951C26.7447 14.4951 25.2913 13.9226 24.2121 12.8434C22.9526 11.584 22.3832 9.81443 22.6088 7.86078C22.8203 6.02878 23.7193 4.2374 25.1402 2.81652C26.5609 1.39574 28.3523 0.496767 30.1843 0.285156C32.1381 0.0598494 33.9074 0.629118 35.1669 1.88847C36.4265 3.14801 36.9958 4.91754 36.7703 6.87119C36.5588 8.70319 35.6599 10.4946 34.239 11.9154C32.8182 13.3362 31.0267 14.2352 29.1947 14.4467C28.9149 14.4791 28.6389 14.4951 28.3676 14.4951ZM30.9988 3.05168C30.8385 3.05168 30.6744 3.06124 30.5071 3.08057C29.3031 3.21958 28.1037 3.83246 27.1299 4.8062C26.1561 5.78002 25.5432 6.97944 25.4042 8.18345C25.2792 9.26589 25.5625 10.2141 26.2019 10.8535C26.8413 11.493 27.7898 11.7762 28.872 11.6513C30.076 11.5123 31.2754 10.8994 32.2492 9.92558C33.223 8.95176 33.8359 7.75244 33.9748 6.54843C34.0999 5.46598 33.8165 4.51776 33.1771 3.87833C32.6366 3.33777 31.8752 3.05168 30.9988 3.05168Z" fill="#936363"/>
<path d="M9.47843 15.2111C7.85541 15.2111 6.40209 14.6385 5.32292 13.5595C4.06338 12.2999 3.49393 10.5305 3.71951 8.57685C3.93103 6.74485 4.83001 4.95347 6.25088 3.53259C7.67166 2.11181 9.46314 1.21284 11.295 1.00123C13.249 0.775732 15.0182 1.34519 16.2777 2.60454C17.5372 3.86408 18.1067 5.63361 17.8811 7.58726C17.6696 9.41926 16.7706 11.2106 15.3497 12.6314C13.9289 14.0523 12.1375 14.9513 10.3055 15.1628C10.0258 15.1951 9.74969 15.2111 9.47843 15.2111ZM12.1096 3.76775C11.9493 3.76775 11.7852 3.77732 11.6179 3.79664C10.4139 3.93565 9.21448 4.54853 8.24074 5.52227C7.26682 6.49619 6.65403 7.6956 6.51493 8.89961C6.38999 9.98206 6.67326 10.9303 7.31269 11.5697C7.95203 12.209 8.90006 12.4926 9.98279 12.3674C11.1868 12.2284 12.3862 11.6155 13.36 10.6417C14.3339 9.66783 14.9467 8.46841 15.0857 7.2645C15.2107 6.18205 14.9273 5.23383 14.288 4.5944C13.7474 4.05384 12.9861 3.76775 12.1096 3.76775Z" fill="#936363"/>
<path d="M39.549 25.6765C37.926 25.6765 36.4726 25.1039 35.3935 24.0249C34.1339 22.7653 33.5645 20.9959 33.79 19.0422C34.0016 17.2102 34.9005 15.4188 36.3214 13.998C37.7422 12.5772 39.5337 11.6782 41.3657 11.4667C43.3191 11.2407 45.0888 11.8106 46.3483 13.07C47.6079 14.3295 48.1773 16.099 47.9517 18.0526C47.7402 19.8846 46.8412 21.676 45.4204 23.0969C43.9996 24.5177 42.2081 25.4167 40.3762 25.6283C40.0964 25.6604 39.8202 25.6765 39.549 25.6765ZM42.1801 14.2331C42.0198 14.2331 41.8558 14.2427 41.6884 14.262C40.4844 14.401 39.285 15.0139 38.3112 15.9877C37.3374 16.9616 36.7245 18.1609 36.5855 19.3649C36.4605 20.4473 36.7438 21.3956 37.3832 22.035C38.0227 22.6744 38.9711 22.958 40.0533 22.8327C41.2573 22.6937 42.4568 22.0808 43.4306 21.107C44.4044 20.1332 45.0173 18.9338 45.1562 17.7298C45.2812 16.6473 44.9979 15.6991 44.3585 15.0597C43.818 14.5191 43.0567 14.2331 42.1801 14.2331Z" fill="#936363"/>
<path d="M38.6031 44.3357C36.9801 44.3357 35.5267 43.7632 34.4476 42.6841C33.188 41.4246 32.6186 39.6551 32.8441 37.7015C33.0557 35.8695 33.9546 34.0781 35.3755 32.6572C36.7963 31.2365 38.5878 30.3375 40.4198 30.126C42.3732 29.9001 44.1429 30.4698 45.4024 31.7293C46.6619 32.9887 47.2314 34.7582 47.0058 36.7119C46.7943 38.5439 45.8953 40.3353 44.4745 41.7562C43.0537 43.1769 41.2622 44.0759 39.4303 44.2875C39.1505 44.3198 38.8743 44.3357 38.6031 44.3357ZM41.2342 32.8925C41.0739 32.8925 40.9099 32.902 40.7425 32.9214C39.5385 33.0604 38.3391 33.6733 37.3653 34.6471C36.3915 35.6209 35.7786 36.8202 35.6396 38.0242C35.5146 39.1067 35.7979 40.0549 36.4373 40.6943C37.0767 41.3338 38.0253 41.6171 39.1074 41.492C40.3114 41.353 41.5109 40.7401 42.4847 39.7664C43.4585 38.7926 44.0714 37.5931 44.2103 36.3891C44.3353 35.3067 44.052 34.3585 43.4126 33.719C42.8721 33.1785 42.1108 32.8925 41.2342 32.8925Z" fill="#936363"/>
</g>
<defs>
<clipPath id="clip0">
<rect width="48" height="48" fill="white"/>
</clipPath>
</defs>
</svg>
